<svg width="200" height="300" viewBox="0 0 200 300" xmlns="http://www.w3.org/2000/svg">
    <title>Thomas Carlyle Portrait</title>
    <rect x="0" y="0" width="200" height="300" fill="#f0f0f0" />
    <path d="M100 50 a40 40 0 1 1 0 80 a40 40 0 1 1 0 -80" fill="#fff" stroke="#000"
        stroke-width="2" />
    <path d="M80 130 c10 20 30 20 40 0" stroke="#000" stroke-width="2" fill="none" />
    <path d="M70 150 a5 5 0 1 1 10 0" stroke="#000" stroke-width="2" fill="none" />
    <path d="M130 150 a5 5 0 1 1 10 0" stroke="#000" stroke-width="2" fill="none" />
    <path d="M80 170 a10 10 0 1 1 20 0" stroke="#000" stroke-width="2" fill="none" />
    <path d="M50 200 c20 50 80 50 100 0" stroke="#000" stroke-width="2" fill="none" />
    <path d="M50 250 c20 20 80 20 100 0" stroke="#000" stroke-width="2" fill="none" />
    <rect x="60" y="250" width="80" height="50" fill="#000" />
</svg>